<svg xmlns="http://www.w3.org/2000/svg" xmlns:xlink="http://www.w3.org/1999/xlink" width="120" zoomAndPan="magnify" viewBox="0 0 90 60" height="80" preserveAspectRatio="xMidYMid meet" version="1.0"><defs><g/><clipPath id="36c2999bf3"><path d="M 78.910156 27.578125 L 80.21875 27.578125 L 80.21875 28.886719 L 78.910156 28.886719 Z M 78.910156 27.578125 " clip-rule="nonzero"/></clipPath><clipPath id="3d97ef8307"><path d="M 79.566406 27.578125 C 79.203125 27.578125 78.910156 27.871094 78.910156 28.234375 C 78.910156 28.59375 79.203125 28.886719 79.566406 28.886719 C 79.925781 28.886719 80.21875 28.59375 80.21875 28.234375 C 80.21875 27.871094 79.925781 27.578125 79.566406 27.578125 Z M 79.566406 27.578125 " clip-rule="nonzero"/></clipPath></defs><g fill="#e8e4de" fill-opacity="1"><g transform="translate(2.940231, 43.616782)"><g><path d="M 16.890625 -24.96875 C 16.691406 -23.976562 16.46875 -22.992188 16.21875 -22.015625 C 13.59375 -11.953125 11.34375 -3.304688 9.46875 3.921875 C 8.789062 4.140625 8.578125 3.75 8.828125 2.75 C 9.265625 0.570312 10.085938 -2.910156 11.296875 -7.703125 C 12.515625 -12.492188 13.765625 -17.28125 15.046875 -22.0625 C 15.296875 -23.03125 15.519531 -24.003906 15.71875 -24.984375 C 15.71875 -25.023438 15.734375 -25.070312 15.765625 -25.125 C 15.804688 -25.300781 15.832031 -25.492188 15.84375 -25.703125 C 15.863281 -25.910156 15.835938 -26.128906 15.765625 -26.359375 C 15.460938 -26.253906 15.191406 -26.117188 14.953125 -25.953125 C 14.890625 -25.910156 14.828125 -25.878906 14.765625 -25.859375 C 12.566406 -24.484375 10.304688 -22.796875 7.984375 -20.796875 C 5.671875 -18.804688 3.703125 -16.796875 2.078125 -14.765625 C 1.734375 -14.328125 1.398438 -13.875 1.078125 -13.40625 C 0.753906 -12.945312 0.460938 -12.457031 0.203125 -11.9375 C -0.078125 -11.382812 -0.265625 -10.796875 -0.359375 -10.171875 C -0.503906 -9.003906 -0.0351562 -8.210938 1.046875 -7.796875 C 1.804688 -7.515625 2.539062 -7.363281 3.25 -7.34375 C 3.957031 -7.332031 4.613281 -7.378906 5.21875 -7.484375 C 5.832031 -7.597656 6.351562 -7.71875 6.78125 -7.84375 C 6.96875 -7.863281 7.132812 -7.894531 7.28125 -7.9375 C 7.351562 -7.957031 7.4375 -7.96875 7.53125 -7.96875 C 7.625 -7.976562 7.710938 -7.945312 7.796875 -7.875 C 7.921875 -7.726562 7.796875 -7.582031 7.421875 -7.4375 C 7.046875 -7.300781 6.523438 -7.179688 5.859375 -7.078125 C 5.203125 -6.972656 4.492188 -6.898438 3.734375 -6.859375 C 2.378906 -6.828125 1.304688 -6.941406 0.515625 -7.203125 C 0.015625 -7.359375 -0.410156 -7.601562 -0.765625 -7.9375 C -1.179688 -8.375 -1.394531 -8.882812 -1.40625 -9.46875 C -1.4375 -10.070312 -1.347656 -10.660156 -1.140625 -11.234375 C -0.773438 -12.148438 -0.300781 -12.992188 0.28125 -13.765625 C 1.269531 -15.179688 2.457031 -16.585938 3.84375 -17.984375 C 5.238281 -19.390625 6.703125 -20.71875 8.234375 -21.96875 C 9.773438 -23.226562 11.253906 -24.347656 12.671875 -25.328125 C 13.316406 -25.765625 13.976562 -26.175781 14.65625 -26.5625 C 14.988281 -26.757812 15.335938 -26.914062 15.703125 -27.03125 C 15.804688 -27.0625 15.898438 -27.078125 15.984375 -27.078125 C 16.671875 -27.222656 17.019531 -26.914062 17.03125 -26.15625 C 17.019531 -25.75 16.972656 -25.351562 16.890625 -24.96875 Z M 16.890625 -24.96875 "/></g></g><g transform="translate(17.996769, 41.171242)"><g><path d="M 2.921875 -4.265625 C 2.203125 -3.847656 1.6875 -3.519531 1.375 -3.28125 C 1.15625 -3.132812 1.03125 -3.015625 1 -2.921875 C 0.976562 -2.835938 1.035156 -2.695312 1.171875 -2.5 C 1.171875 -2.488281 1.175781 -2.472656 1.1875 -2.453125 C 1.332031 -2.210938 1.4375 -1.957031 1.5 -1.6875 C 1.625 -1.144531 1.210938 -0.675781 0.265625 -0.28125 C -0.671875 0.101562 -1.320312 0.210938 -1.6875 0.046875 C -2.050781 -0.109375 -2.195312 -0.351562 -2.125 -0.6875 C -2.050781 -1.03125 -1.769531 -1.40625 -1.28125 -1.8125 C -0.800781 -2.226562 -0.476562 -2.523438 -0.3125 -2.703125 C -0.15625 -2.890625 -0.128906 -3.0625 -0.234375 -3.21875 C -0.265625 -3.28125 -0.300781 -3.335938 -0.34375 -3.390625 C -0.425781 -3.535156 -0.519531 -3.6875 -0.625 -3.84375 C -0.789062 -4.101562 -0.890625 -4.378906 -0.921875 -4.671875 C -0.953125 -4.960938 -0.882812 -5.210938 -0.71875 -5.421875 C -0.5625 -5.640625 -0.285156 -5.789062 0.109375 -5.875 C 0.347656 -5.914062 0.5625 -5.914062 0.75 -5.875 C 0.9375 -5.84375 1.097656 -5.742188 1.234375 -5.578125 C 1.335938 -5.453125 1.328125 -5.328125 1.203125 -5.203125 C 1.117188 -5.109375 1.023438 -5.082031 0.921875 -5.125 C 0.847656 -5.144531 0.773438 -5.175781 0.703125 -5.21875 C 0.703125 -5.238281 0.703125 -5.25 0.703125 -5.25 C 0.671875 -5.25 0.640625 -5.257812 0.609375 -5.28125 C 0.578125 -5.320312 0.535156 -5.351562 0.484375 -5.375 C 0.347656 -5.445312 0.21875 -5.453125 0.09375 -5.390625 C -0.03125 -5.335938 -0.109375 -5.222656 -0.140625 -5.046875 C -0.160156 -4.910156 -0.160156 -4.773438 -0.140625 -4.640625 C -0.109375 -4.484375 -0.046875 -4.335938 0.046875 -4.203125 C 0.0976562 -4.117188 0.144531 -4.039062 0.1875 -3.96875 C 0.300781 -3.769531 0.394531 -3.632812 0.46875 -3.5625 C 0.539062 -3.488281 0.613281 -3.460938 0.6875 -3.484375 C 0.757812 -3.515625 1.40625 -3.875 2.625 -4.5625 C 2.894531 -4.695312 2.992188 -4.597656 2.921875 -4.265625 Z M 0.234375 -0.96875 C 0.546875 -1.132812 0.644531 -1.382812 0.53125 -1.71875 C 0.53125 -1.75 0.523438 -1.773438 0.515625 -1.796875 C 0.460938 -1.972656 0.398438 -2.109375 0.328125 -2.203125 C 0.265625 -2.296875 0.132812 -2.269531 -0.0625 -2.125 C -0.519531 -1.769531 -0.929688 -1.359375 -1.296875 -0.890625 C -1.316406 -0.859375 -1.335938 -0.820312 -1.359375 -0.78125 C -1.359375 -0.78125 -1.363281 -0.773438 -1.375 -0.765625 C -1.394531 -0.722656 -1.390625 -0.675781 -1.359375 -0.625 C -1.335938 -0.582031 -1.289062 -0.570312 -1.21875 -0.59375 C -0.71875 -0.582031 -0.234375 -0.707031 0.234375 -0.96875 Z M 0.234375 -0.96875 "/></g></g><g transform="translate(21.219014, 40.647873)"><g><path d="M 7.015625 -4.875 C 7.148438 -5.019531 7.269531 -5.070312 7.375 -5.03125 C 7.488281 -4.988281 7.484375 -4.828125 7.359375 -4.546875 C 7.203125 -4.234375 6.875 -3.867188 6.375 -3.453125 C 5.875 -3.035156 5.40625 -2.8125 4.96875 -2.78125 C 4.539062 -2.75 4.367188 -3.039062 4.453125 -3.65625 C 4.535156 -4.269531 4.578125 -4.613281 4.578125 -4.6875 C 4.585938 -4.757812 4.570312 -4.796875 4.53125 -4.796875 C 4.488281 -4.804688 4.394531 -4.75 4.25 -4.625 C 3.863281 -4.238281 3.488281 -3.847656 3.125 -3.453125 C 2.96875 -3.296875 2.816406 -3.125 2.671875 -2.9375 C 2.585938 -2.820312 2.492188 -2.707031 2.390625 -2.59375 C 2.390625 -2.59375 2.382812 -2.585938 2.375 -2.578125 C 2.269531 -2.421875 2.125 -2.304688 1.9375 -2.234375 C 1.863281 -2.203125 1.78125 -2.179688 1.6875 -2.171875 C 1.59375 -2.160156 1.515625 -2.179688 1.453125 -2.234375 C 1.367188 -2.296875 1.328125 -2.367188 1.328125 -2.453125 C 1.335938 -2.546875 1.378906 -2.679688 1.453125 -2.859375 C 1.523438 -3.035156 1.609375 -3.226562 1.703125 -3.4375 C 1.796875 -3.644531 1.847656 -3.769531 1.859375 -3.8125 C 1.867188 -3.863281 1.851562 -3.910156 1.8125 -3.953125 C 1.757812 -3.984375 1.710938 -3.988281 1.671875 -3.96875 C 1.640625 -3.945312 1.507812 -3.816406 1.28125 -3.578125 C 1.050781 -3.347656 0.726562 -3.023438 0.3125 -2.609375 C 0.132812 -2.410156 -0.046875 -2.207031 -0.234375 -2 C -0.273438 -1.9375 -0.320312 -1.878906 -0.375 -1.828125 C -0.507812 -1.691406 -0.664062 -1.601562 -0.84375 -1.5625 C -0.96875 -1.53125 -1.066406 -1.539062 -1.140625 -1.59375 C -1.210938 -1.644531 -1.238281 -1.734375 -1.21875 -1.859375 C -1.195312 -1.953125 -1.171875 -2.039062 -1.140625 -2.125 C -1.128906 -2.15625 -1.117188 -2.1875 -1.109375 -2.21875 C -0.859375 -3.0625 -0.609375 -3.90625 -0.359375 -4.75 C -0.347656 -4.769531 -0.34375 -4.796875 -0.34375 -4.828125 C -0.3125 -4.921875 -0.28125 -5.015625 -0.25 -5.109375 C -0.15625 -5.253906 -0.0234375 -5.316406 0.140625 -5.296875 C 0.335938 -5.265625 0.425781 -5.164062 0.40625 -5 C 0.351562 -4.738281 0.304688 -4.488281 0.265625 -4.25 C 0.234375 -4.132812 0.207031 -4.015625 0.1875 -3.890625 C 0.144531 -3.691406 0.140625 -3.566406 0.171875 -3.515625 C 0.203125 -3.472656 0.316406 -3.53125 0.515625 -3.6875 C 0.648438 -3.8125 0.78125 -3.9375 0.90625 -4.0625 C 1.0625 -4.195312 1.207031 -4.328125 1.34375 -4.453125 C 1.570312 -4.640625 1.804688 -4.804688 2.046875 -4.953125 C 2.160156 -5.035156 2.28125 -5.097656 2.40625 -5.140625 C 2.53125 -5.191406 2.660156 -5.179688 2.796875 -5.109375 C 2.898438 -5.046875 2.953125 -4.96875 2.953125 -4.875 C 2.953125 -4.789062 2.941406 -4.703125 2.921875 -4.609375 C 2.878906 -4.441406 2.863281 -4.332031 2.875 -4.28125 C 2.894531 -4.238281 2.9375 -4.234375 3 -4.265625 C 3.0625 -4.304688 3.160156 -4.390625 3.296875 -4.515625 C 3.441406 -4.640625 3.597656 -4.773438 3.765625 -4.921875 C 3.972656 -5.109375 4.195312 -5.289062 4.4375 -5.46875 C 4.625 -5.644531 4.835938 -5.769531 5.078125 -5.84375 C 5.410156 -5.914062 5.566406 -5.800781 5.546875 -5.5 C 5.535156 -5.195312 5.472656 -4.828125 5.359375 -4.390625 C 5.253906 -3.960938 5.273438 -3.710938 5.421875 -3.640625 C 5.578125 -3.578125 5.867188 -3.753906 6.296875 -4.171875 C 6.722656 -4.585938 6.960938 -4.820312 7.015625 -4.875 Z M 7.015625 -4.875 "/></g></g><g transform="translate(28.914578, 39.397931)"><g><path d="M 4.65625 -4.5625 C 4.78125 -4.519531 4.820312 -4.359375 4.78125 -4.078125 C 4.664062 -3.890625 4.539062 -3.695312 4.40625 -3.5 C 4.269531 -3.3125 4.117188 -3.140625 3.953125 -2.984375 C 3.929688 -2.984375 3.921875 -2.976562 3.921875 -2.96875 C 3.828125 -2.863281 3.710938 -2.769531 3.578125 -2.6875 C 2.484375 -2.082031 1.847656 -2.226562 1.671875 -3.125 C 1.265625 -2.644531 0.992188 -2.34375 0.859375 -2.21875 C 0.515625 -1.925781 0.113281 -1.757812 -0.34375 -1.71875 C -0.675781 -1.6875 -0.914062 -1.75 -1.0625 -1.90625 C -1.207031 -2.070312 -1.234375 -2.320312 -1.140625 -2.65625 C -1.015625 -3.175781 -0.78125 -3.660156 -0.4375 -4.109375 C -0.0625 -4.609375 0.390625 -5.035156 0.921875 -5.390625 C 1.191406 -5.585938 1.5 -5.695312 1.84375 -5.71875 C 2.164062 -5.75 2.390625 -5.59375 2.515625 -5.25 C 2.566406 -5.144531 2.554688 -5.039062 2.484375 -4.9375 C 2.390625 -4.832031 2.273438 -4.789062 2.140625 -4.8125 C 2.128906 -4.8125 2.113281 -4.8125 2.09375 -4.8125 C 2.070312 -4.820312 2.054688 -4.832031 2.046875 -4.84375 C 1.867188 -5.007812 1.707031 -5.066406 1.5625 -5.015625 C 1.425781 -4.960938 1.289062 -4.875 1.15625 -4.75 C 0.476562 -4.195312 0.0234375 -3.5 -0.203125 -2.65625 C -0.222656 -2.625 -0.226562 -2.582031 -0.21875 -2.53125 C -0.21875 -2.488281 -0.203125 -2.457031 -0.171875 -2.4375 C -0.0859375 -2.425781 0 -2.445312 0.09375 -2.5 C 0.195312 -2.5625 0.296875 -2.640625 0.390625 -2.734375 C 0.492188 -2.835938 0.578125 -2.921875 0.640625 -2.984375 C 0.648438 -3.003906 0.65625 -3.015625 0.65625 -3.015625 C 0.957031 -3.359375 1.25 -3.710938 1.53125 -4.078125 C 1.664062 -4.273438 1.835938 -4.398438 2.046875 -4.453125 C 2.367188 -4.503906 2.523438 -4.378906 2.515625 -4.078125 C 2.503906 -3.972656 2.488281 -3.859375 2.46875 -3.734375 C 2.425781 -3.265625 2.46875 -3 2.59375 -2.9375 C 2.726562 -2.875 2.90625 -2.898438 3.125 -3.015625 C 3.351562 -3.140625 3.566406 -3.332031 3.765625 -3.59375 C 3.972656 -3.851562 4.144531 -4.09375 4.28125 -4.3125 C 4.414062 -4.53125 4.539062 -4.613281 4.65625 -4.5625 Z M 4.65625 -4.5625 "/></g></g><g transform="translate(33.737034, 38.61465)"><g><path d="M 2.390625 -3.53125 C 2.179688 -3.1875 1.921875 -2.851562 1.609375 -2.53125 C 1.296875 -2.21875 0.925781 -1.976562 0.5 -1.8125 C 0.0703125 -1.65625 -0.273438 -1.632812 -0.546875 -1.75 C -0.828125 -1.863281 -0.9375 -2.203125 -0.875 -2.765625 C -0.769531 -3.347656 -0.585938 -3.914062 -0.328125 -4.46875 C -0.253906 -4.582031 -0.15625 -4.675781 -0.03125 -4.75 C 0.0625 -4.789062 0.15625 -4.785156 0.25 -4.734375 C 0.34375 -4.691406 0.390625 -4.617188 0.390625 -4.515625 C 0.347656 -4.335938 0.296875 -4.15625 0.234375 -3.96875 C 0.171875 -3.78125 0.128906 -3.65625 0.109375 -3.59375 C -0.00390625 -3.25 -0.0664062 -2.90625 -0.078125 -2.5625 C -0.046875 -2.363281 0.210938 -2.394531 0.703125 -2.65625 C 1.191406 -2.914062 1.644531 -3.3125 2.0625 -3.84375 C 2.476562 -4.375 2.6875 -4.539062 2.6875 -4.34375 C 2.695312 -4.15625 2.597656 -3.882812 2.390625 -3.53125 Z M 0.734375 -5.765625 C 0.710938 -5.742188 0.664062 -5.710938 0.59375 -5.671875 C 0.519531 -5.628906 0.441406 -5.597656 0.359375 -5.578125 C 0.273438 -5.554688 0.203125 -5.554688 0.140625 -5.578125 C 0.0859375 -5.609375 0.078125 -5.6875 0.109375 -5.8125 C 0.148438 -6.03125 0.203125 -6.222656 0.265625 -6.390625 C 0.328125 -6.566406 0.414062 -6.75 0.53125 -6.9375 C 0.59375 -7.03125 0.671875 -7.085938 0.765625 -7.109375 C 0.867188 -7.140625 0.957031 -7.128906 1.03125 -7.078125 C 1.113281 -7.023438 1.148438 -6.953125 1.140625 -6.859375 C 1.097656 -6.441406 0.960938 -6.078125 0.734375 -5.765625 Z M 0.734375 -5.765625 "/></g></g><g transform="translate(36.573773, 38.153896)"><g><path d="M 2.953125 -4.046875 C 3.085938 -4.234375 3.207031 -4.34375 3.3125 -4.375 C 3.425781 -4.40625 3.5 -4.394531 3.53125 -4.34375 C 3.5625 -4.300781 3.554688 -4.226562 3.515625 -4.125 C 3.160156 -3.550781 2.75 -3.03125 2.28125 -2.5625 C 1.8125 -2.101562 1.300781 -1.800781 0.75 -1.65625 C 0.195312 -1.507812 -0.1875 -1.757812 -0.40625 -2.40625 C -0.59375 -3.0625 -0.410156 -4.476562 0.140625 -6.65625 C 0.703125 -8.84375 1.140625 -10.628906 1.453125 -12.015625 C 1.472656 -12.140625 1.515625 -12.253906 1.578125 -12.359375 C 1.691406 -12.492188 1.832031 -12.546875 2 -12.515625 C 2.050781 -12.492188 2.109375 -12.457031 2.171875 -12.40625 C 2.242188 -12.363281 2.28125 -12.273438 2.28125 -12.140625 C 0.863281 -6.328125 0.226562 -3.1875 0.375 -2.71875 C 0.519531 -2.25 0.84375 -2.179688 1.34375 -2.515625 C 1.851562 -2.847656 2.234375 -3.160156 2.484375 -3.453125 C 2.734375 -3.742188 2.890625 -3.941406 2.953125 -4.046875 Z M 2.953125 -4.046875 "/></g></g><g transform="translate(40.203344, 37.564367)"><g/></g><g transform="translate(45.702254, 36.671214)"><g><path d="M 42.234375 -0.84375 C 42.273438 -0.820312 42.304688 -0.773438 42.328125 -0.703125 L 42.328125 -0.671875 C 42.328125 -0.640625 42.332031 -0.613281 42.34375 -0.59375 C 42.320312 -0.519531 42.285156 -0.46875 42.234375 -0.4375 C 42.179688 -0.40625 42.128906 -0.382812 42.078125 -0.375 C 42.046875 -0.363281 42.007812 -0.359375 41.96875 -0.359375 C 41.9375 -0.359375 41.910156 -0.363281 41.890625 -0.375 C 41.628906 -0.539062 41.351562 -0.632812 41.0625 -0.65625 C 40.769531 -0.6875 40.484375 -0.695312 40.203125 -0.6875 C 40.023438 -0.695312 39.851562 -0.695312 39.6875 -0.6875 C 35.914062 -0.8125 32.15625 -0.769531 28.40625 -0.5625 C 26.5 -0.4375 24.585938 -0.289062 22.671875 -0.125 C 21.210938 0.0195312 19.75 0.191406 18.28125 0.390625 C 17.320312 0.535156 16.363281 0.664062 15.40625 0.78125 C 14.695312 0.875 13.984375 0.988281 13.265625 1.125 C 13.054688 1.175781 12.84375 1.21875 12.625 1.25 C 11.976562 1.363281 11.328125 1.484375 10.671875 1.609375 C 8.910156 1.910156 7.15625 2.238281 5.40625 2.59375 C 3.894531 2.894531 2.394531 3.234375 0.90625 3.609375 C -0.570312 3.984375 -2.039062 4.421875 -3.5 4.921875 C -4.476562 5.242188 -5.429688 5.660156 -6.359375 6.171875 C -6.390625 6.179688 -6.425781 6.203125 -6.46875 6.234375 C -6.570312 6.296875 -6.671875 6.347656 -6.765625 6.390625 C -6.867188 6.441406 -6.984375 6.460938 -7.109375 6.453125 C -7.265625 6.460938 -7.367188 6.398438 -7.421875 6.265625 C -7.429688 6.234375 -7.429688 6.191406 -7.421875 6.140625 C -7.421875 6.085938 -7.40625 6.039062 -7.375 6 C -7.207031 5.8125 -7.039062 5.632812 -6.875 5.46875 C -5.226562 3.863281 -3.640625 2.207031 -2.109375 0.5 C 0.585938 -2.4375 3.125 -5.5 5.5 -8.6875 C 6.988281 -10.664062 8.5 -12.617188 10.03125 -14.546875 C 11.019531 -15.785156 12 -17.03125 12.96875 -18.28125 C 13.4375 -18.894531 13.90625 -19.515625 14.375 -20.140625 C 14.414062 -20.234375 14.460938 -20.316406 14.515625 -20.390625 C 14.546875 -20.410156 14.570312 -20.429688 14.59375 -20.453125 C 14.632812 -20.523438 14.675781 -20.59375 14.71875 -20.65625 C 14.757812 -20.726562 14.773438 -20.804688 14.765625 -20.890625 C 14.628906 -20.953125 14.503906 -20.988281 14.390625 -21 C 14.285156 -21.007812 14.164062 -21.003906 14.03125 -20.984375 C 13.976562 -20.972656 13.921875 -20.960938 13.859375 -20.953125 C 12.492188 -20.828125 11.132812 -20.671875 9.78125 -20.484375 C 8.4375 -20.296875 7.09375 -20.0625 5.75 -19.78125 C 4.613281 -19.550781 3.484375 -19.289062 2.359375 -19 C 1.234375 -18.71875 0.117188 -18.382812 -0.984375 -18 C -1.046875 -17.976562 -1.097656 -17.957031 -1.140625 -17.9375 C -1.335938 -17.875 -1.523438 -17.796875 -1.703125 -17.703125 C -1.890625 -17.617188 -2.054688 -17.5 -2.203125 -17.34375 C -2.140625 -17.144531 -2.03125 -16.988281 -1.875 -16.875 C -1.726562 -16.757812 -1.5625 -16.65625 -1.375 -16.5625 C -1.269531 -16.519531 -1.171875 -16.472656 -1.078125 -16.421875 C -0.546875 -16.109375 0.0195312 -15.867188 0.625 -15.703125 C 0.644531 -15.703125 0.664062 -15.6875 0.6875 -15.65625 C 0.71875 -15.625 0.738281 -15.597656 0.75 -15.578125 C 0.757812 -15.515625 0.742188 -15.46875 0.703125 -15.4375 C 0.671875 -15.414062 0.632812 -15.398438 0.59375 -15.390625 C 0.351562 -15.285156 0.113281 -15.269531 -0.125 -15.34375 C -0.59375 -15.476562 -1.046875 -15.644531 -1.484375 -15.84375 C -1.929688 -16.050781 -2.351562 -16.296875 -2.75 -16.578125 C -3.394531 -17.046875 -3.378906 -17.484375 -2.703125 -17.890625 C -2.335938 -18.109375 -1.945312 -18.300781 -1.53125 -18.46875 C -0.9375 -18.707031 -0.332031 -18.910156 0.28125 -19.078125 C 0.894531 -19.242188 1.515625 -19.414062 2.140625 -19.59375 C 2.203125 -19.601562 2.265625 -19.617188 2.328125 -19.640625 C 3.921875 -20.054688 5.53125 -20.398438 7.15625 -20.671875 C 8.78125 -20.941406 10.410156 -21.1875 12.046875 -21.40625 C 12.941406 -21.519531 13.847656 -21.601562 14.765625 -21.65625 C 14.992188 -21.675781 15.203125 -21.722656 15.390625 -21.796875 C 15.585938 -21.867188 15.757812 -22.007812 15.90625 -22.21875 C 15.9375 -22.269531 15.992188 -22.316406 16.078125 -22.359375 C 16.160156 -22.398438 16.234375 -22.4375 16.296875 -22.46875 C 16.328125 -22.476562 16.351562 -22.492188 16.375 -22.515625 C 16.46875 -22.546875 16.550781 -22.539062 16.625 -22.5 C 16.695312 -22.457031 16.734375 -22.375 16.734375 -22.25 C 16.742188 -22.132812 16.765625 -22.046875 16.796875 -21.984375 C 16.835938 -21.929688 16.914062 -21.90625 17.03125 -21.90625 C 17.09375 -21.90625 17.148438 -21.90625 17.203125 -21.90625 C 17.429688 -21.9375 17.65625 -21.9375 17.875 -21.90625 C 18.019531 -21.894531 18.097656 -21.816406 18.109375 -21.671875 C 18.109375 -21.617188 18.085938 -21.570312 18.046875 -21.53125 C 18.015625 -21.5 17.976562 -21.476562 17.9375 -21.46875 C 17.707031 -21.40625 17.472656 -21.351562 17.234375 -21.3125 C 16.960938 -21.257812 16.75 -21.222656 16.59375 -21.203125 C 16.382812 -21.179688 16.234375 -21.15625 16.140625 -21.125 C 16.046875 -21.09375 15.960938 -21.035156 15.890625 -20.953125 C 15.816406 -20.878906 15.722656 -20.753906 15.609375 -20.578125 C 15.523438 -20.453125 15.414062 -20.296875 15.28125 -20.109375 C 14.132812 -18.554688 12.957031 -17.03125 11.75 -15.53125 C 11.351562 -15 10.957031 -14.488281 10.5625 -14 C 8.8125 -11.738281 7.070312 -9.472656 5.34375 -7.203125 C 3.070312 -4.253906 0.679688 -1.425781 -1.828125 1.28125 C -2.398438 1.894531 -2.972656 2.503906 -3.546875 3.109375 C -3.898438 3.484375 -4.253906 3.851562 -4.609375 4.21875 C -4.628906 4.238281 -4.648438 4.265625 -4.671875 4.296875 C -4.722656 4.347656 -4.769531 4.40625 -4.8125 4.46875 C -4.863281 4.53125 -4.878906 4.609375 -4.859375 4.703125 C -4.648438 4.640625 -4.429688 4.570312 -4.203125 4.5 C -3.691406 4.332031 -3.171875 4.160156 -2.640625 3.984375 C -0.972656 3.453125 0.71875 2.988281 2.4375 2.59375 C 4.613281 2.113281 6.796875 1.671875 8.984375 1.265625 C 11.171875 0.859375 13.363281 0.484375 15.5625 0.140625 C 18.90625 -0.378906 22.273438 -0.765625 25.671875 -1.015625 C 30.710938 -1.367188 35.753906 -1.40625 40.796875 -1.125 C 40.828125 -1.125 40.867188 -1.117188 40.921875 -1.109375 C 41.222656 -1.109375 41.519531 -1.082031 41.8125 -1.03125 C 41.96875 -1.007812 42.109375 -0.945312 42.234375 -0.84375 Z M 42.234375 -0.84375 "/></g></g><g transform="translate(54.408861, 35.257054)"><g><path d="M 4.65625 -4.5625 C 4.78125 -4.519531 4.820312 -4.359375 4.78125 -4.078125 C 4.664062 -3.890625 4.539062 -3.695312 4.40625 -3.5 C 4.269531 -3.3125 4.117188 -3.140625 3.953125 -2.984375 C 3.929688 -2.984375 3.921875 -2.976562 3.921875 -2.96875 C 3.828125 -2.863281 3.710938 -2.769531 3.578125 -2.6875 C 2.484375 -2.082031 1.847656 -2.226562 1.671875 -3.125 C 1.265625 -2.644531 0.992188 -2.34375 0.859375 -2.21875 C 0.515625 -1.925781 0.113281 -1.757812 -0.34375 -1.71875 C -0.675781 -1.6875 -0.914062 -1.75 -1.0625 -1.90625 C -1.207031 -2.070312 -1.234375 -2.320312 -1.140625 -2.65625 C -1.015625 -3.175781 -0.78125 -3.660156 -0.4375 -4.109375 C -0.0625 -4.609375 0.390625 -5.035156 0.921875 -5.390625 C 1.191406 -5.585938 1.5 -5.695312 1.84375 -5.71875 C 2.164062 -5.75 2.390625 -5.59375 2.515625 -5.25 C 2.566406 -5.144531 2.554688 -5.039062 2.484375 -4.9375 C 2.390625 -4.832031 2.273438 -4.789062 2.140625 -4.8125 C 2.128906 -4.8125 2.113281 -4.8125 2.09375 -4.8125 C 2.070312 -4.820312 2.054688 -4.832031 2.046875 -4.84375 C 1.867188 -5.007812 1.707031 -5.066406 1.5625 -5.015625 C 1.425781 -4.960938 1.289062 -4.875 1.15625 -4.75 C 0.476562 -4.195312 0.0234375 -3.5 -0.203125 -2.65625 C -0.222656 -2.625 -0.226562 -2.582031 -0.21875 -2.53125 C -0.21875 -2.488281 -0.203125 -2.457031 -0.171875 -2.4375 C -0.0859375 -2.425781 0 -2.445312 0.09375 -2.5 C 0.195312 -2.5625 0.296875 -2.640625 0.390625 -2.734375 C 0.492188 -2.835938 0.578125 -2.921875 0.640625 -2.984375 C 0.648438 -3.003906 0.65625 -3.015625 0.65625 -3.015625 C 0.957031 -3.359375 1.25 -3.710938 1.53125 -4.078125 C 1.664062 -4.273438 1.835938 -4.398438 2.046875 -4.453125 C 2.367188 -4.503906 2.523438 -4.378906 2.515625 -4.078125 C 2.503906 -3.972656 2.488281 -3.859375 2.46875 -3.734375 C 2.425781 -3.265625 2.46875 -3 2.59375 -2.9375 C 2.726562 -2.875 2.90625 -2.898438 3.125 -3.015625 C 3.351562 -3.140625 3.566406 -3.332031 3.765625 -3.59375 C 3.972656 -3.851562 4.144531 -4.09375 4.28125 -4.3125 C 4.414062 -4.53125 4.539062 -4.613281 4.65625 -4.5625 Z M 4.65625 -4.5625 "/></g></g><g transform="translate(59.231317, 34.473773)"><g><path d="M 5.359375 -4.34375 C 5.285156 -4.25 5.203125 -4.164062 5.109375 -4.09375 C 4.835938 -3.851562 4.582031 -3.65625 4.34375 -3.5 C 4.101562 -3.351562 3.828125 -3.191406 3.515625 -3.015625 C 3.035156 -2.785156 2.707031 -2.765625 2.53125 -2.953125 C 2.351562 -3.148438 2.285156 -3.453125 2.328125 -3.859375 C 2.359375 -4.429688 2.363281 -4.847656 2.34375 -5.109375 C 2.320312 -5.378906 2.222656 -5.457031 2.046875 -5.34375 C 1.878906 -5.226562 1.578125 -4.90625 1.140625 -4.375 C 0.535156 -3.644531 0.046875 -2.847656 -0.328125 -1.984375 C -0.367188 -1.867188 -0.429688 -1.769531 -0.515625 -1.6875 C -0.597656 -1.613281 -0.707031 -1.566406 -0.84375 -1.546875 C -0.96875 -1.523438 -1.0625 -1.539062 -1.125 -1.59375 C -1.195312 -1.644531 -1.21875 -1.734375 -1.1875 -1.859375 C -1.007812 -2.554688 -0.816406 -3.234375 -0.609375 -3.890625 C -0.273438 -5.046875 0.0546875 -6.195312 0.390625 -7.34375 C 0.628906 -8.207031 0.863281 -9.066406 1.09375 -9.921875 C 1.25 -10.429688 1.394531 -10.941406 1.53125 -11.453125 C 1.539062 -11.492188 1.550781 -11.539062 1.5625 -11.59375 C 1.570312 -11.644531 1.585938 -11.695312 1.609375 -11.75 C 1.628906 -11.8125 1.648438 -11.875 1.671875 -11.9375 C 1.691406 -11.988281 1.738281 -12.039062 1.8125 -12.09375 C 1.894531 -12.144531 1.972656 -12.179688 2.046875 -12.203125 C 2.128906 -12.222656 2.191406 -12.226562 2.234375 -12.21875 C 2.304688 -12.1875 2.347656 -12.144531 2.359375 -12.09375 C 2.367188 -12.039062 2.367188 -11.992188 2.359375 -11.953125 C 2.347656 -11.929688 2.34375 -11.910156 2.34375 -11.890625 C 2.300781 -11.585938 2.25 -11.289062 2.1875 -11 C 1.8125 -9.425781 1.375 -7.859375 0.875 -6.296875 C 0.84375 -6.179688 0.800781 -6.050781 0.75 -5.90625 C 0.675781 -5.707031 0.609375 -5.503906 0.546875 -5.296875 C 0.484375 -5.097656 0.472656 -4.96875 0.515625 -4.90625 C 0.554688 -4.851562 0.695312 -4.925781 0.9375 -5.125 C 0.988281 -5.1875 1.046875 -5.253906 1.109375 -5.328125 C 1.285156 -5.492188 1.46875 -5.648438 1.65625 -5.796875 C 1.8125 -5.941406 1.988281 -6.035156 2.1875 -6.078125 C 2.695312 -6.191406 3.023438 -6.007812 3.171875 -5.53125 C 3.222656 -5.34375 3.242188 -5.144531 3.234375 -4.9375 C 3.234375 -4.738281 3.222656 -4.546875 3.203125 -4.359375 C 3.203125 -4.285156 3.203125 -4.222656 3.203125 -4.171875 C 3.160156 -3.828125 3.210938 -3.644531 3.359375 -3.625 C 3.503906 -3.601562 3.6875 -3.660156 3.90625 -3.796875 C 4.125 -3.929688 4.347656 -4.09375 4.578125 -4.28125 C 4.734375 -4.394531 4.867188 -4.492188 4.984375 -4.578125 C 5.109375 -4.660156 5.203125 -4.703125 5.265625 -4.703125 C 5.378906 -4.710938 5.4375 -4.675781 5.4375 -4.59375 C 5.445312 -4.519531 5.421875 -4.4375 5.359375 -4.34375 Z M 5.359375 -4.34375 "/></g></g><g transform="translate(64.781143, 33.57235)"><g><path d="M 2.390625 -3.53125 C 2.179688 -3.1875 1.921875 -2.851562 1.609375 -2.53125 C 1.296875 -2.21875 0.925781 -1.976562 0.5 -1.8125 C 0.0703125 -1.65625 -0.273438 -1.632812 -0.546875 -1.75 C -0.828125 -1.863281 -0.9375 -2.203125 -0.875 -2.765625 C -0.769531 -3.347656 -0.585938 -3.914062 -0.328125 -4.46875 C -0.253906 -4.582031 -0.15625 -4.675781 -0.03125 -4.75 C 0.0625 -4.789062 0.15625 -4.785156 0.25 -4.734375 C 0.34375 -4.691406 0.390625 -4.617188 0.390625 -4.515625 C 0.347656 -4.335938 0.296875 -4.15625 0.234375 -3.96875 C 0.171875 -3.78125 0.128906 -3.65625 0.109375 -3.59375 C -0.00390625 -3.25 -0.0664062 -2.90625 -0.078125 -2.5625 C -0.046875 -2.363281 0.210938 -2.394531 0.703125 -2.65625 C 1.191406 -2.914062 1.644531 -3.3125 2.0625 -3.84375 C 2.476562 -4.375 2.6875 -4.539062 2.6875 -4.34375 C 2.695312 -4.15625 2.597656 -3.882812 2.390625 -3.53125 Z M 0.734375 -5.765625 C 0.710938 -5.742188 0.664062 -5.710938 0.59375 -5.671875 C 0.519531 -5.628906 0.441406 -5.597656 0.359375 -5.578125 C 0.273438 -5.554688 0.203125 -5.554688 0.140625 -5.578125 C 0.0859375 -5.609375 0.078125 -5.6875 0.109375 -5.8125 C 0.148438 -6.03125 0.203125 -6.222656 0.265625 -6.390625 C 0.328125 -6.566406 0.414062 -6.75 0.53125 -6.9375 C 0.59375 -7.03125 0.671875 -7.085938 0.765625 -7.109375 C 0.867188 -7.140625 0.957031 -7.128906 1.03125 -7.078125 C 1.113281 -7.023438 1.148438 -6.953125 1.140625 -6.859375 C 1.097656 -6.441406 0.960938 -6.078125 0.734375 -5.765625 Z M 0.734375 -5.765625 "/></g></g><g transform="translate(67.617882, 33.111596)"><g><path d="M 2.765625 -5.03125 C 2.773438 -4.695312 2.648438 -4.453125 2.390625 -4.296875 C 2.140625 -4.148438 2.03125 -4.269531 2.0625 -4.65625 C 2.101562 -5.039062 1.925781 -5.109375 1.53125 -4.859375 C 1.132812 -4.609375 0.816406 -4.328125 0.578125 -4.015625 C 0.222656 -3.492188 -0.078125 -2.957031 -0.328125 -2.40625 C -0.347656 -2.351562 -0.367188 -2.3125 -0.390625 -2.28125 C -0.453125 -2.113281 -0.53125 -1.960938 -0.625 -1.828125 C -0.664062 -1.742188 -0.722656 -1.679688 -0.796875 -1.640625 C -0.867188 -1.597656 -0.957031 -1.582031 -1.0625 -1.59375 C -1.144531 -1.59375 -1.210938 -1.609375 -1.265625 -1.640625 C -1.316406 -1.679688 -1.332031 -1.742188 -1.3125 -1.828125 C -1.28125 -1.972656 -1.238281 -2.117188 -1.1875 -2.265625 C -0.882812 -3.148438 -0.570312 -4.03125 -0.25 -4.90625 C -0.238281 -4.925781 -0.234375 -4.941406 -0.234375 -4.953125 C -0.191406 -5.085938 -0.140625 -5.21875 -0.078125 -5.34375 C -0.00390625 -5.445312 0.0976562 -5.5 0.234375 -5.5 C 0.367188 -5.507812 0.46875 -5.457031 0.53125 -5.34375 C 0.613281 -5.175781 0.675781 -5.082031 0.71875 -5.0625 C 0.757812 -5.050781 0.84375 -5.082031 0.96875 -5.15625 C 1.238281 -5.3125 1.503906 -5.429688 1.765625 -5.515625 C 2.035156 -5.609375 2.265625 -5.632812 2.453125 -5.59375 C 2.648438 -5.5625 2.753906 -5.375 2.765625 -5.03125 Z M 2.765625 -5.03125 "/></g></g></g><g clip-path="url(#36c2999bf3)"><g clip-path="url(#3d97ef8307)"><path fill="#ffffff" d="M 78.910156 27.578125 L 80.21875 27.578125 L 80.21875 28.886719 L 78.910156 28.886719 Z M 78.910156 27.578125 " fill-opacity="1" fill-rule="nonzero"/></g></g></svg>